<svg width="1440" height="1024" viewBox="0 0 1440 1024" fill="none" xmlns="http://www.w3.org/2000/svg">
<rect width="1440" height="1024" fill="#1E1E1E"/>
<g clip-path="url(#clip0_0_1)">
<rect width="1440" height="1024" fill="white"/>
<g filter="url(#filter0_d_0_1)">
<rect width="542" height="1024" fill="#FFFEFD"/>
<rect x="5" y="5" width="532" height="1014" stroke="black" stroke-width="10"/>
</g>
<rect x="903" y="5" width="528" height="1014" fill="#FFFFFE" stroke="black" stroke-width="10"/>
<rect x="39" y="778" width="173" height="102" rx="30" fill="#7C7983" class="clickable-table"/>
<rect x="353" y="64" width="173" height="102" rx="30" fill="#7C7983" class="clickable-table"/>
<path d="M919 98C919 81.4315 932.431 68 949 68H1062C1078.57 68 1092 81.4315 1092 98V140C1092 156.569 1078.57 170 1062 170H949C932.431 170 919 156.569 919 140V98Z" fill="#7C7983" class="clickable-table"/>
<rect x="1244" y="778" width="173" height="102" rx="30" fill="#7C7983" class="clickable-table"/>
<rect x="1244" y="540" width="173" height="102" rx="30" fill="#7C7983" class="clickable-table"/>
<rect x="1244" y="302" width="173" height="102" rx="30" fill="#7C7983" class="clickable-table"/>
<path d="M1244 94C1244 77.4315 1257.43 64 1274 64H1387C1403.57 64 1417 77.4315 1417 94V136C1417 152.569 1403.57 166 1387 166H1274C1257.43 166 1244 152.569 1244 136V94Z" fill="#7C7983" class="clickable-table"/>
<rect x="918" y="302" width="173" height="102" rx="30" fill="#7C7983" class="clickable-table"/>
<rect x="918" y="540" width="173" height="102" rx="30" fill="#7C7983" class="clickable-table"/>
<rect x="919" y="778" width="173" height="102" rx="30" fill="#7C7983" class="clickable-table"/>
<path d="M50 60C50 37.9086 67.9086 20 90 20H142C164.091 20 182 37.9086 182 60V610C182 632.091 164.091 650 142 650H90C67.9086 650 50 632.091 50 610V60Z" fill="#7C7983" class="clickable-table"/>
<rect x="350" y="302" width="173" height="102" rx="30" fill="#7C7983" class="clickable-table"/>
<rect x="354" y="540" width="173" height="102" rx="30" fill="#7C7983" class="clickable-table"/>
<rect x="353" y="778" width="173" height="102" rx="30" fill="#7C7983" class="clickable-table"/>
<rect x="245" y="13" width="95" height="997" fill="#F4C3C3"/>
<rect x="1105" y="13" width="127" height="997" fill="#F4C3C3"/>
<rect x="533" y="931" width="9" height="93" fill="#090808"/>
<rect x="898" y="931" width="9" height="93" fill="#090808"/>
<rect x="600" y="1010" width="236" height="14" fill="#090808"/>
<path d="M936 535C936 522.297 946.297 512 959 512H961C973.703 512 984 522.297 984 535V535H936V535Z" fill="#F54F08"/>
<path d="M1265 297C1265 284.297 1275.3 274 1288 274H1290C1302.7 274 1313 284.297 1313 297V297H1265V297Z" fill="#F54F08"/>
<path d="M1338 59C1338 46.2975 1348.3 36 1361 36H1363C1375.7 36 1386 46.2975 1386 59V59H1338V59Z" fill="#F54F08"/>
<path d="M1265 59C1265 46.2975 1275.3 36 1288 36H1290C1302.7 36 1313 46.2975 1313 59V59H1265V59Z" fill="#F54F08"/>
<path d="M1338 297C1338 284.297 1348.3 274 1361 274H1363C1375.7 274 1386 284.297 1386 297V297H1338V297Z" fill="#F54F08"/>
<path d="M1338 535C1338 522.297 1348.3 512 1361 512H1363C1375.7 512 1386 522.297 1386 535V535H1338V535Z" fill="#F54F08"/>
<path d="M1265 534C1265 521.297 1275.3 511 1288 511H1290C1302.7 511 1313 521.297 1313 534V534H1265V534Z" fill="#F54F08"/>
<path d="M1338 773C1338 760.297 1348.3 750 1361 750H1363C1375.7 750 1386 760.297 1386 773V773H1338V773Z" fill="#F54F08"/>
<path d="M1265 773C1265 760.297 1275.3 750 1288 750H1290C1302.7 750 1313 760.297 1313 773V773H1265V773Z" fill="#F54F08"/>
<path d="M1022 771C1022 758.297 1032.3 748 1045 748H1047C1059.7 748 1070 758.297 1070 771V771H1022V771Z" fill="#F54F08"/>
<path d="M941 773C941 760.297 951.297 750 964 750H966C978.703 750 989 760.297 989 773V773H941V773Z" fill="#F54F08"/>
<path d="M1022 534C1022 521.297 1032.3 511 1045 511H1047C1059.7 511 1070 521.297 1070 534V534H1022V534Z" fill="#F54F08"/>
<path d="M379 59C379 46.2975 389.297 36 402 36H404C416.703 36 427 46.2975 427 59V59H379V59Z" fill="#F54F08"/>
<path d="M1021 297C1021 284.297 1031.3 274 1044 274H1046C1058.7 274 1069 284.297 1069 297V297H1021V297Z" fill="#F54F08"/>
<path d="M936 297C936 284.297 946.297 274 959 274H961C973.703 274 984 284.297 984 297V297H936V297Z" fill="#F54F08"/>
<path d="M1021 64C1021 51.2975 1031.3 41 1044 41H1046C1058.7 41 1069 51.2975 1069 64V64H1021V64Z" fill="#F54F08"/>
<path d="M936 64C936 51.2975 946.297 41 959 41H961C973.703 41 984 51.2975 984 64V64H936V64Z" fill="#F54F08"/>
<path d="M190 56C192.786 56 194.179 56 195.354 56.0925C210.065 57.2503 221.75 68.9349 222.908 83.6462C223 84.8213 223 86.2142 223 89L223 575C223 577.786 223 579.179 222.908 580.354C221.75 595.065 210.065 606.75 195.354 607.908C194.179 608 192.786 608 190 608V608L190 56V56Z" fill="#F54F08"/>
<path d="M40 611C37.2142 611 35.8213 611 34.6462 610.908C19.9349 609.75 8.25028 598.065 7.09248 583.354C7 582.179 7 580.786 7 578L7 92C7 89.2142 7 87.8213 7.09248 86.6462C8.25028 71.9349 19.9349 60.2503 34.6462 59.0925C35.8213 59 37.2142 59 40 59V59L40 611V611Z" fill="#F54F08"/>
<path d="M1386 171C1386 183.703 1375.7 194 1363 194H1361C1348.3 194 1338 183.703 1338 171V171H1386V171Z" fill="#F54F08"/>
<path d="M1313 171C1313 183.703 1302.7 194 1290 194H1288C1275.3 194 1265 183.703 1265 171V171H1313V171Z" fill="#F54F08"/>
<path d="M1394 410C1394 422.703 1383.7 433 1371 433H1369C1356.3 433 1346 422.703 1346 410V410H1394V410Z" fill="#F54F08"/>
<path d="M1313 410C1313 422.703 1302.7 433 1290 433H1288C1275.3 433 1265 422.703 1265 410V410H1313V410Z" fill="#F54F08"/>
<path d="M1386 647C1386 659.703 1375.7 670 1363 670H1361C1348.3 670 1338 659.703 1338 647V647H1386V647Z" fill="#F54F08"/>
<path d="M1313 646C1313 658.703 1302.7 669 1290 669H1288C1275.3 669 1265 658.703 1265 646V646H1313V646Z" fill="#F54F08"/>
<path d="M1386 884C1386 896.703 1375.7 907 1363 907H1361C1348.3 907 1338 896.703 1338 884V884H1386V884Z" fill="#F54F08"/>
<path d="M1313 884C1313 896.703 1302.7 907 1290 907H1288C1275.3 907 1265 896.703 1265 884V884H1313V884Z" fill="#F54F08"/>
<path d="M1069 884C1069 896.703 1058.7 907 1046 907H1044C1031.3 907 1021 896.703 1021 884V884H1069V884Z" fill="#F54F08"/>
<path d="M989 884C989 896.703 978.703 907 966 907H964C951.297 907 941 896.703 941 884V884H989V884Z" fill="#F54F08"/>
<path d="M1069 646C1069 658.703 1058.7 669 1046 669H1044C1031.3 669 1021 658.703 1021 646V646H1069V646Z" fill="#F54F08"/>
<path d="M1070 178C1070 190.703 1059.7 201 1047 201H1045C1032.3 201 1022 190.703 1022 178V178H1070V178Z" fill="#F54F08"/>
<path d="M1070 410C1070 422.703 1059.7 433 1047 433H1045C1032.3 433 1022 422.703 1022 410V410H1070V410Z" fill="#F54F08"/>
<path d="M508 885C508 897.703 497.703 908 485 908H483C470.297 908 460 897.703 460 885V885H508V885Z" fill="#F54F08"/>
<path d="M427 885C427 897.703 416.703 908 404 908H402C389.297 908 379 897.703 379 885V885H427V885Z" fill="#F54F08"/>
<path d="M190 885C190 897.703 179.703 908 167 908H165C152.297 908 142 897.703 142 885V885H190V885Z" fill="#F54F08"/>
<path d="M111 885C111 897.703 100.703 908 88 908H86C73.2975 908 63 897.703 63 885V885H111V885Z" fill="#F54F08"/>
<path d="M508 171C508 183.703 497.703 194 485 194H483C470.297 194 460 183.703 460 171V171H508V171Z" fill="#F54F08"/>
<path d="M427 171C427 183.703 416.703 194 404 194H402C389.297 194 379 183.703 379 171V171H427V171Z" fill="#F54F08"/>
<path d="M508 409C508 421.703 497.703 432 485 432H483C470.297 432 460 421.703 460 409V409H508V409Z" fill="#F54F08"/>
<path d="M427 409C427 421.703 416.703 432 404 432H402C389.297 432 379 421.703 379 409V409H427V409Z" fill="#F54F08"/>
<path d="M508 645C508 657.703 497.703 668 485 668H483C470.297 668 460 657.703 460 645V645H508V645Z" fill="#F54F08"/>
<path d="M427 645C427 657.703 416.703 668 404 668H402C389.297 668 379 657.703 379 645V645H427V645Z" fill="#F54F08"/>
<path d="M986 646C986 658.703 975.703 669 963 669H961C948.297 669 938 658.703 938 646V646H986V646Z" fill="#F54F08"/>
<path d="M984 410C984 422.703 973.703 433 961 433H959C946.297 433 936 422.703 936 410V410H984V410Z" fill="#F54F08"/>
<path d="M984 174C984 186.703 973.703 197 961 197H959C946.297 197 936 186.703 936 174V174H984V174Z" fill="#F54F08"/>
<path d="M460 773C460 760.297 470.297 750 483 750H485C497.703 750 508 760.297 508 773V773H460V773Z" fill="#F54F08"/>
<path d="M379 773C379 760.297 389.297 750 402 750H404C416.703 750 427 760.297 427 773V773H379V773Z" fill="#F54F08"/>
<path d="M460 534C460 521.297 470.297 511 483 511H485C497.703 511 508 521.297 508 534V534H460V534Z" fill="#F54F08"/>
<path d="M379 535C379 522.297 389.297 512 402 512H404C416.703 512 427 522.297 427 535V535H379V535Z" fill="#F54F08"/>
<path d="M460 297C460 284.297 470.297 274 483 274H485C497.703 274 508 284.297 508 297V297H460V297Z" fill="#F54F08"/>
<path d="M379 297C379 284.297 389.297 274 402 274H404C416.703 274 427 284.297 427 297V297H379V297Z" fill="#F54F08"/>
<path d="M142 773C142 760.297 152.297 750 165 750H167C179.703 750 190 760.297 190 773V773H142V773Z" fill="#F54F08"/>
<path d="M460 59C460 46.2975 470.297 36 483 36H485C497.703 36 508 46.2975 508 59V59H460V59Z" fill="#F54F08"/>
<path d="M63 773C63 760.297 73.2975 750 86 750H88C100.703 750 111 760.297 111 773V773H63V773Z" fill="#F54F08"/>
<rect x="340" y="232" width="204" height="7" fill="#0A0A0A"/>
<rect x="340" y="232" width="204" height="7" fill="#0A0A0A"/>
<rect x="340" y="232" width="204" height="7" fill="#0A0A0A"/>
<rect x="340" y="232" width="204" height="7" fill="#0A0A0A"/>
<rect x="340" y="232" width="204" height="7" fill="#0A0A0A"/>
<rect x="340" y="232" width="204" height="7" fill="#0A0A0A"/>
<rect x="340" y="232" width="204" height="7" fill="#0A0A0A"/>
<rect x="340" y="232" width="204" height="7" fill="#0A0A0A"/>
<rect x="340" y="232" width="204" height="7" fill="#0A0A0A"/>
<rect x="1232" y="707" width="204" height="7" fill="#0A0A0A"/>
<rect x="1232" y="468" width="204" height="7" fill="#0A0A0A"/>
<rect x="1232" y="235" width="204" height="7" fill="#0A0A0A"/>
<rect x="898" y="704" width="204" height="7" fill="#0A0A0A"/>
<rect x="903" y="468" width="204" height="7" fill="#0A0A0A"/>
<rect x="898" y="232" width="204" height="7" fill="#0A0A0A"/>
<rect x="338" y="707" width="204" height="7" fill="#0A0A0A"/>
<rect x="340" y="469" width="204" height="7" fill="#0A0A0A"/>
<rect x="808" y="597" width="72" height="259" fill="#032668"/>
<rect x="808" y="597" width="72" height="259" fill="#032668"/>
<rect x="808" y="597" width="72" height="259" fill="#032668"/>
<rect x="534" width="369" height="259" fill="#032668"/>
<rect x="534" width="369" height="259" fill="#032668"/>
<rect x="534" width="369" height="259" fill="#032668"/>
<path d="M649.523 122V92.9091H653.045V107.341H653.386L666.455 92.9091H671.057L658.841 106.034L671.057 122H666.795L656.682 108.477L653.045 112.568V122H649.523ZM676.529 122V100.182H679.881V122H676.529ZM678.234 96.5455C677.58 96.5455 677.017 96.3229 676.543 95.8778C676.079 95.4328 675.847 94.8977 675.847 94.2727C675.847 93.6477 676.079 93.1127 676.543 92.6676C677.017 92.2225 677.58 92 678.234 92C678.887 92 679.446 92.2225 679.91 92.6676C680.383 93.1127 680.62 93.6477 680.62 94.2727C680.62 94.8977 680.383 95.4328 679.91 95.8778C679.446 96.3229 678.887 96.5455 678.234 96.5455ZM695.51 100.182V103.023H684.203V100.182H695.51ZM687.499 94.9545H690.851V115.75C690.851 116.697 690.988 117.407 691.263 117.881C691.547 118.345 691.907 118.657 692.342 118.818C692.787 118.97 693.256 119.045 693.749 119.045C694.118 119.045 694.421 119.027 694.658 118.989C694.894 118.941 695.084 118.903 695.226 118.875L695.908 121.886C695.68 121.972 695.363 122.057 694.956 122.142C694.549 122.237 694.033 122.284 693.408 122.284C692.461 122.284 691.533 122.08 690.624 121.673C689.724 121.266 688.976 120.646 688.379 119.812C687.792 118.979 687.499 117.928 687.499 116.659V94.9545ZM709.182 122.455C707.136 122.455 705.375 121.972 703.898 121.006C702.42 120.04 701.284 118.709 700.489 117.014C699.693 115.319 699.295 113.383 699.295 111.205C699.295 108.989 699.703 107.033 700.517 105.338C701.341 103.634 702.487 102.303 703.955 101.347C705.432 100.381 707.155 99.8977 709.125 99.8977C710.659 99.8977 712.042 100.182 713.273 100.75C714.504 101.318 715.512 102.114 716.298 103.136C717.084 104.159 717.572 105.352 717.761 106.716H714.409C714.153 105.722 713.585 104.841 712.705 104.074C711.833 103.297 710.659 102.909 709.182 102.909C707.875 102.909 706.729 103.25 705.744 103.932C704.769 104.604 704.007 105.556 703.457 106.787C702.918 108.009 702.648 109.443 702.648 111.091C702.648 112.777 702.913 114.244 703.443 115.494C703.983 116.744 704.741 117.715 705.716 118.406C706.701 119.098 707.856 119.443 709.182 119.443C710.053 119.443 710.844 119.292 711.554 118.989C712.264 118.686 712.866 118.25 713.358 117.682C713.85 117.114 714.201 116.432 714.409 115.636H717.761C717.572 116.924 717.103 118.084 716.355 119.116C715.616 120.139 714.636 120.954 713.415 121.56C712.203 122.156 710.792 122.455 709.182 122.455ZM726.014 108.875V122H722.662V92.9091H726.014V103.591H726.298C726.81 102.464 727.577 101.569 728.599 100.906C729.632 100.234 731.005 99.8977 732.719 99.8977C734.205 99.8977 735.508 100.196 736.625 100.793C737.742 101.38 738.609 102.284 739.224 103.506C739.849 104.718 740.162 106.261 740.162 108.136V122H736.81V108.364C736.81 106.631 736.36 105.291 735.46 104.344C734.57 103.387 733.334 102.909 731.753 102.909C730.654 102.909 729.67 103.141 728.798 103.605C727.937 104.069 727.255 104.746 726.753 105.636C726.26 106.527 726.014 107.606 726.014 108.875ZM755.442 122.455C753.34 122.455 751.527 121.991 750.002 121.062C748.487 120.125 747.317 118.818 746.494 117.142C745.679 115.456 745.272 113.496 745.272 111.261C745.272 109.027 745.679 107.057 746.494 105.352C747.317 103.638 748.463 102.303 749.931 101.347C751.408 100.381 753.132 99.8977 755.102 99.8977C756.238 99.8977 757.36 100.087 758.468 100.466C759.576 100.845 760.585 101.46 761.494 102.312C762.403 103.155 763.127 104.273 763.667 105.665C764.207 107.057 764.477 108.771 764.477 110.807V112.227H747.658V109.33H761.067C761.067 108.098 760.821 107 760.329 106.034C759.846 105.068 759.155 104.306 758.255 103.747C757.365 103.188 756.314 102.909 755.102 102.909C753.766 102.909 752.611 103.241 751.636 103.903C750.67 104.557 749.926 105.409 749.406 106.46C748.885 107.511 748.624 108.638 748.624 109.841V111.773C748.624 113.42 748.908 114.817 749.477 115.963C750.054 117.099 750.854 117.966 751.877 118.562C752.9 119.15 754.088 119.443 755.442 119.443C756.323 119.443 757.119 119.32 757.829 119.074C758.549 118.818 759.169 118.439 759.69 117.938C760.21 117.426 760.613 116.792 760.897 116.034L764.136 116.943C763.795 118.042 763.222 119.008 762.417 119.841C761.612 120.665 760.618 121.309 759.434 121.773C758.25 122.227 756.92 122.455 755.442 122.455ZM772.928 108.875V122H769.576V100.182H772.815V103.591H773.099C773.61 102.483 774.387 101.593 775.428 100.92C776.47 100.239 777.815 99.8977 779.462 99.8977C780.94 99.8977 782.232 100.201 783.34 100.807C784.448 101.403 785.31 102.312 785.925 103.534C786.541 104.746 786.849 106.28 786.849 108.136V122H783.496V108.364C783.496 106.65 783.051 105.314 782.161 104.358C781.271 103.392 780.049 102.909 778.496 102.909C777.426 102.909 776.47 103.141 775.627 103.605C774.794 104.069 774.136 104.746 773.653 105.636C773.17 106.527 772.928 107.606 772.928 108.875Z" fill="white"/>
<path d="M837 782.068V785.591C835.987 785.799 835.097 786.164 834.33 786.685C833.562 787.196 832.919 787.821 832.398 788.56C831.867 789.289 831.47 790.098 831.205 790.989C830.939 791.879 830.807 792.807 830.807 793.773C830.807 795.534 831.252 797.13 832.142 798.56C833.032 799.98 834.344 801.112 836.077 801.955C837.81 802.788 839.936 803.205 842.455 803.205C844.973 803.205 847.099 802.788 848.832 801.955C850.565 801.112 851.877 799.98 852.767 798.56C853.657 797.13 854.102 795.534 854.102 793.773C854.102 792.807 853.97 791.879 853.705 790.989C853.439 790.098 853.046 789.289 852.526 788.56C851.995 787.821 851.347 787.196 850.58 786.685C849.803 786.164 848.913 785.799 847.909 785.591V782.068C849.396 782.333 850.726 782.816 851.901 783.517C853.075 784.218 854.074 785.089 854.898 786.131C855.712 787.172 856.332 788.342 856.759 789.639C857.185 790.927 857.398 792.305 857.398 793.773C857.398 796.254 856.792 798.46 855.58 800.392C854.367 802.324 852.644 803.844 850.409 804.952C848.174 806.06 845.523 806.614 842.455 806.614C839.386 806.614 836.735 806.06 834.5 804.952C832.265 803.844 830.542 802.324 829.33 800.392C828.117 798.46 827.511 796.254 827.511 793.773C827.511 792.305 827.724 790.927 828.151 789.639C828.577 788.342 829.202 787.172 830.026 786.131C830.84 785.089 831.834 784.218 833.009 783.517C834.173 782.816 835.504 782.333 837 782.068ZM857.455 767.967C857.455 769.936 856.986 771.665 856.048 773.151C855.111 774.629 853.799 775.784 852.114 776.617C850.428 777.441 848.458 777.853 846.205 777.853C843.932 777.853 841.948 777.441 840.253 776.617C838.558 775.784 837.241 774.629 836.304 773.151C835.366 771.665 834.898 769.936 834.898 767.967C834.898 765.997 835.366 764.273 836.304 762.796C837.241 761.309 838.558 760.154 840.253 759.33C841.948 758.497 843.932 758.08 846.205 758.08C848.458 758.08 850.428 758.497 852.114 759.33C853.799 760.154 855.111 761.309 856.048 762.796C856.986 764.273 857.455 765.997 857.455 767.967ZM854.443 767.967C854.443 766.47 854.06 765.239 853.293 764.273C852.526 763.308 851.517 762.593 850.267 762.129C849.017 761.665 847.663 761.433 846.205 761.433C844.746 761.433 843.387 761.665 842.128 762.129C840.868 762.593 839.85 763.308 839.074 764.273C838.297 765.239 837.909 766.47 837.909 767.967C837.909 769.463 838.297 770.694 839.074 771.66C839.85 772.626 840.868 773.341 842.128 773.805C843.387 774.269 844.746 774.501 846.205 774.501C847.663 774.501 849.017 774.269 850.267 773.805C851.517 773.341 852.526 772.626 853.293 771.66C854.06 770.694 854.443 769.463 854.443 767.967ZM848.08 739.213H835.182V735.861H857V739.213H853.307V739.44C854.415 739.952 855.357 740.747 856.134 741.827C856.901 742.906 857.284 744.27 857.284 745.918C857.284 747.281 856.986 748.493 856.389 749.554C855.783 750.615 854.874 751.448 853.662 752.054C852.44 752.66 850.902 752.963 849.045 752.963H835.182V749.611H848.818C850.409 749.611 851.678 749.166 852.625 748.276C853.572 747.376 854.045 746.23 854.045 744.838C854.045 744.005 853.832 743.157 853.406 742.295C852.98 741.424 852.327 740.695 851.446 740.108C850.565 739.511 849.443 739.213 848.08 739.213ZM843.875 726.369H857V729.721H835.182V726.482H838.591V726.198C837.483 725.687 836.593 724.91 835.92 723.869C835.239 722.827 834.898 721.482 834.898 719.835C834.898 718.357 835.201 717.065 835.807 715.957C836.403 714.849 837.312 713.987 838.534 713.371C839.746 712.756 841.28 712.448 843.136 712.448H857V715.8H843.364C841.65 715.8 840.314 716.246 839.358 717.136C838.392 718.026 837.909 719.247 837.909 720.8C837.909 721.871 838.141 722.827 838.605 723.67C839.069 724.503 839.746 725.161 840.636 725.644C841.527 726.127 842.606 726.369 843.875 726.369ZM835.182 696.834H838.023V708.141H835.182V696.834ZM829.955 704.845V701.493H850.75C851.697 701.493 852.407 701.356 852.881 701.081C853.345 700.797 853.657 700.437 853.818 700.001C853.97 699.556 854.045 699.088 854.045 698.595C854.045 698.226 854.027 697.923 853.989 697.686C853.941 697.449 853.903 697.26 853.875 697.118L856.886 696.436C856.972 696.663 857.057 696.981 857.142 697.388C857.237 697.795 857.284 698.311 857.284 698.936C857.284 699.883 857.08 700.811 856.673 701.72C856.266 702.62 855.646 703.368 854.812 703.964C853.979 704.552 852.928 704.845 851.659 704.845H829.955ZM857.455 682.878C857.455 684.98 856.991 686.794 856.062 688.318C855.125 689.833 853.818 691.003 852.142 691.827C850.456 692.641 848.496 693.048 846.261 693.048C844.027 693.048 842.057 692.641 840.352 691.827C838.638 691.003 837.303 689.857 836.347 688.389C835.381 686.912 834.898 685.188 834.898 683.219C834.898 682.082 835.087 680.96 835.466 679.852C835.845 678.744 836.46 677.736 837.312 676.827C838.155 675.918 839.273 675.193 840.665 674.653C842.057 674.114 843.771 673.844 845.807 673.844H847.227V690.662H844.33V677.253C843.098 677.253 842 677.499 841.034 677.991C840.068 678.474 839.306 679.166 838.747 680.065C838.188 680.955 837.909 682.007 837.909 683.219C837.909 684.554 838.241 685.709 838.903 686.685C839.557 687.651 840.409 688.394 841.46 688.915C842.511 689.436 843.638 689.696 844.841 689.696H846.773C848.42 689.696 849.817 689.412 850.963 688.844C852.099 688.266 852.966 687.466 853.562 686.443C854.15 685.42 854.443 684.232 854.443 682.878C854.443 681.997 854.32 681.202 854.074 680.491C853.818 679.772 853.439 679.152 852.938 678.631C852.426 678.11 851.792 677.707 851.034 677.423L851.943 674.185C853.042 674.526 854.008 675.098 854.841 675.903C855.665 676.708 856.309 677.703 856.773 678.886C857.227 680.07 857.455 681.401 857.455 682.878ZM857 668.744H835.182V665.506H838.477V665.278C837.398 664.881 836.522 664.161 835.849 663.119C835.177 662.078 834.841 660.903 834.841 659.597C834.841 659.35 834.846 659.043 834.855 658.673C834.865 658.304 834.879 658.025 834.898 657.835H838.307C838.278 657.949 838.236 658.209 838.179 658.616C838.113 659.014 838.08 659.436 838.08 659.881C838.08 660.941 838.302 661.888 838.747 662.722C839.183 663.545 839.789 664.199 840.565 664.682C841.332 665.155 842.208 665.392 843.193 665.392H857V668.744Z" fill="#FFFAFA"/>
<path d="M455.239 818.909V848H451.716V822.602H451.545L444.443 827.318V823.739L451.716 818.909H455.239Z" fill="black"/>
<path d="M455.239 818.909V848H451.716V822.602H451.545L444.443 827.318V823.739L451.716 818.909H455.239Z" fill="black"/>
<path d="M455.239 818.909V848H451.716V822.602H451.545L444.443 827.318V823.739L451.716 818.909H455.239Z" fill="black"/>
<path d="M1347.24 102.909V132H1343.72V106.602H1343.55L1336.44 111.318V107.739L1343.72 102.909H1347.24ZM1365.83 102.909V132H1362.31V106.602H1362.14L1355.04 111.318V107.739L1362.31 102.909H1365.83Z" fill="black"/>
<path d="M1345.24 341.909V371H1341.72V345.602H1341.55L1334.44 350.318V346.739L1341.72 341.909H1345.24ZM1353.61 371V368.443L1363.21 357.932C1364.33 356.701 1365.26 355.631 1365.99 354.722C1366.72 353.803 1367.26 352.941 1367.61 352.136C1367.97 351.322 1368.15 350.47 1368.15 349.58C1368.15 348.557 1367.9 347.671 1367.41 346.923C1366.93 346.175 1366.27 345.598 1365.42 345.19C1364.58 344.783 1363.63 344.58 1362.58 344.58C1361.46 344.58 1360.49 344.812 1359.66 345.276C1358.83 345.73 1358.19 346.369 1357.74 347.193C1357.29 348.017 1357.07 348.983 1357.07 350.091H1353.72C1353.72 348.386 1354.11 346.89 1354.9 345.602C1355.68 344.314 1356.75 343.311 1358.11 342.591C1359.47 341.871 1361 341.511 1362.7 341.511C1364.4 341.511 1365.91 341.871 1367.23 342.591C1368.54 343.311 1369.58 344.281 1370.32 345.503C1371.07 346.724 1371.45 348.083 1371.45 349.58C1371.45 350.65 1371.25 351.696 1370.86 352.719C1370.48 353.732 1369.82 354.864 1368.88 356.114C1367.94 357.354 1366.64 358.869 1364.97 360.659L1358.43 367.648V367.875H1371.96V371H1353.61Z" fill="black"/>
<path d="M1347.24 576.909V606H1343.72V580.602H1343.55L1336.44 585.318V581.739L1343.72 576.909H1347.24ZM1365.43 606.398C1363.56 606.398 1361.89 606.076 1360.42 605.432C1358.96 604.788 1357.8 603.893 1356.94 602.747C1356.09 601.592 1355.62 600.252 1355.55 598.727H1359.13C1359.2 599.665 1359.53 600.474 1360.09 601.156C1360.66 601.829 1361.41 602.349 1362.32 602.719C1363.24 603.088 1364.26 603.273 1365.38 603.273C1366.63 603.273 1367.74 603.055 1368.7 602.619C1369.67 602.184 1370.43 601.578 1370.97 600.801C1371.52 600.025 1371.8 599.125 1371.8 598.102C1371.8 597.032 1371.53 596.09 1371 595.276C1370.47 594.452 1369.7 593.808 1368.67 593.344C1367.65 592.88 1366.4 592.648 1364.92 592.648H1362.59V589.523H1364.92C1366.08 589.523 1367.09 589.314 1367.96 588.898C1368.84 588.481 1369.53 587.894 1370.02 587.136C1370.52 586.379 1370.78 585.489 1370.78 584.466C1370.78 583.481 1370.56 582.624 1370.12 581.895C1369.69 581.166 1369.07 580.598 1368.28 580.19C1367.49 579.783 1366.56 579.58 1365.49 579.58C1364.49 579.58 1363.54 579.764 1362.65 580.134C1361.77 580.493 1361.05 581.019 1360.49 581.71C1359.93 582.392 1359.63 583.216 1359.58 584.182H1356.17C1356.23 582.657 1356.69 581.322 1357.55 580.176C1358.41 579.021 1359.54 578.121 1360.93 577.477C1362.33 576.833 1363.87 576.511 1365.55 576.511C1367.35 576.511 1368.89 576.876 1370.18 577.605C1371.47 578.325 1372.46 579.277 1373.15 580.46C1373.84 581.644 1374.18 582.922 1374.18 584.295C1374.18 585.934 1373.75 587.33 1372.89 588.486C1372.04 589.641 1370.88 590.441 1369.41 590.886V591.114C1371.25 591.417 1372.68 592.198 1373.72 593.457C1374.75 594.707 1375.26 596.256 1375.26 598.102C1375.26 599.684 1374.83 601.104 1373.97 602.364C1373.12 603.614 1371.95 604.598 1370.48 605.318C1369 606.038 1367.32 606.398 1365.43 606.398Z" fill="black"/>
<path d="M1345.24 813.909V843H1341.72V817.602H1341.55L1334.44 822.318V818.739L1341.72 813.909H1345.24ZM1352.92 837.034V834.136L1365.71 813.909H1367.81V818.398H1366.39L1356.73 833.682V833.909H1373.95V837.034H1352.92ZM1366.62 843V836.153V834.804V813.909H1369.97V843H1366.62Z" fill="black"/>
<path d="M999.239 107.909V137H995.716V111.602H995.545L988.443 116.318V112.739L995.716 107.909H999.239ZM1017.09 137.398C1014.95 137.398 1013.13 136.815 1011.62 135.651C1010.12 134.476 1008.97 132.777 1008.17 130.551C1007.38 128.316 1006.98 125.617 1006.98 122.455C1006.98 119.311 1007.38 116.626 1008.17 114.401C1008.98 112.166 1010.13 110.461 1011.64 109.287C1013.15 108.103 1014.97 107.511 1017.09 107.511C1019.21 107.511 1021.03 108.103 1022.53 109.287C1024.05 110.461 1025.2 112.166 1026 114.401C1026.8 116.626 1027.21 119.311 1027.21 122.455C1027.21 125.617 1026.81 128.316 1026.01 130.551C1025.22 132.777 1024.07 134.476 1022.56 135.651C1021.06 136.815 1019.23 137.398 1017.09 137.398ZM1017.09 134.273C1019.21 134.273 1020.86 133.25 1022.04 131.205C1023.21 129.159 1023.8 126.242 1023.8 122.455C1023.8 119.936 1023.53 117.791 1022.99 116.02C1022.46 114.249 1021.69 112.9 1020.69 111.972C1019.69 111.044 1018.5 110.58 1017.09 110.58C1014.99 110.58 1013.35 111.616 1012.16 113.69C1010.98 115.755 1010.39 118.676 1010.39 122.455C1010.39 124.973 1010.65 127.114 1011.18 128.875C1011.71 130.636 1012.48 131.976 1013.47 132.895C1014.48 133.813 1015.68 134.273 1017.09 134.273Z" fill="black"/>
<path d="M998.273 342.511C999.466 342.521 1000.66 342.748 1001.85 343.193C1003.05 343.638 1004.13 344.377 1005.12 345.409C1006.1 346.432 1006.89 347.829 1007.49 349.599C1008.09 351.37 1008.39 353.591 1008.39 356.261C1008.39 358.847 1008.14 361.143 1007.65 363.151C1007.16 365.149 1006.46 366.834 1005.55 368.207C1004.64 369.58 1003.53 370.622 1002.22 371.332C1000.92 372.043 999.456 372.398 997.818 372.398C996.189 372.398 994.736 372.076 993.457 371.432C992.188 370.778 991.147 369.874 990.332 368.719C989.527 367.554 989.011 366.205 988.784 364.67H992.25C992.562 366.006 993.183 367.109 994.111 367.98C995.048 368.842 996.284 369.273 997.818 369.273C1000.06 369.273 1001.83 368.293 1003.13 366.332C1004.44 364.372 1005.09 361.602 1005.09 358.023H1004.86C1004.33 358.818 1003.7 359.505 1002.97 360.082C1002.25 360.66 1001.44 361.105 1000.55 361.418C999.655 361.73 998.708 361.886 997.705 361.886C996.038 361.886 994.509 361.474 993.116 360.651C991.734 359.817 990.626 358.676 989.793 357.227C988.969 355.769 988.557 354.102 988.557 352.227C988.557 350.447 988.955 348.818 989.75 347.341C990.555 345.854 991.682 344.67 993.131 343.79C994.589 342.909 996.303 342.483 998.273 342.511ZM998.273 345.636C997.08 345.636 996.005 345.935 995.048 346.531C994.101 347.118 993.348 347.914 992.79 348.918C992.241 349.912 991.966 351.015 991.966 352.227C991.966 353.439 992.231 354.543 992.761 355.537C993.301 356.522 994.035 357.308 994.963 357.895C995.901 358.473 996.966 358.761 998.159 358.761C999.059 358.761 999.897 358.586 1000.67 358.236C1001.45 357.876 1002.13 357.388 1002.7 356.773C1003.29 356.148 1003.75 355.442 1004.08 354.656C1004.41 353.861 1004.58 353.032 1004.58 352.17C1004.58 351.034 1004.3 349.969 1003.76 348.974C1003.22 347.98 1002.47 347.175 1001.51 346.56C1000.56 345.944 999.485 345.636 998.273 345.636Z" fill="black"/>
<path d="M998.33 605.398C996.379 605.398 994.655 605.052 993.159 604.361C991.672 603.66 990.512 602.699 989.679 601.477C988.846 600.246 988.434 598.845 988.443 597.273C988.434 596.042 988.675 594.905 989.168 593.864C989.66 592.812 990.332 591.937 991.185 591.236C992.046 590.526 993.008 590.076 994.068 589.886V589.716C992.676 589.356 991.568 588.575 990.744 587.372C989.92 586.16 989.513 584.782 989.523 583.239C989.513 581.761 989.887 580.44 990.645 579.276C991.402 578.111 992.444 577.192 993.77 576.52C995.105 575.848 996.625 575.511 998.33 575.511C1000.02 575.511 1001.52 575.848 1002.85 576.52C1004.17 577.192 1005.21 578.111 1005.97 579.276C1006.74 580.44 1007.13 581.761 1007.14 583.239C1007.13 584.782 1006.71 586.16 1005.87 587.372C1005.05 588.575 1003.95 589.356 1002.59 589.716V589.886C1003.64 590.076 1004.59 590.526 1005.43 591.236C1006.27 591.937 1006.95 592.812 1007.45 593.864C1007.95 594.905 1008.21 596.042 1008.22 597.273C1008.21 598.845 1007.78 600.246 1006.94 601.477C1006.1 602.699 1004.94 603.66 1003.46 604.361C1001.98 605.052 1000.27 605.398 998.33 605.398ZM998.33 602.273C999.646 602.273 1000.78 602.06 1001.74 601.634C1002.7 601.207 1003.43 600.606 1003.95 599.83C1004.48 599.053 1004.74 598.144 1004.75 597.102C1004.74 596.004 1004.46 595.033 1003.9 594.19C1003.34 593.348 1002.58 592.685 1001.61 592.202C1000.65 591.719 999.561 591.477 998.33 591.477C997.089 591.477 995.981 591.719 995.006 592.202C994.04 592.685 993.277 593.348 992.719 594.19C992.17 595.033 991.9 596.004 991.909 597.102C991.9 598.144 992.151 599.053 992.662 599.83C993.183 600.606 993.926 601.207 994.892 601.634C995.858 602.06 997.004 602.273 998.33 602.273ZM998.33 588.466C999.371 588.466 1000.29 588.258 1001.1 587.841C1001.91 587.424 1002.55 586.842 1003.02 586.094C1003.48 585.346 1003.72 584.47 1003.73 583.466C1003.72 582.481 1003.49 581.624 1003.03 580.895C1002.58 580.156 1001.95 579.588 1001.14 579.19C1000.34 578.783 999.4 578.58 998.33 578.58C997.241 578.58 996.289 578.783 995.474 579.19C994.66 579.588 994.03 580.156 993.585 580.895C993.14 581.624 992.922 582.481 992.932 583.466C992.922 584.47 993.145 585.346 993.599 586.094C994.063 586.842 994.703 587.424 995.517 587.841C996.331 588.258 997.269 588.466 998.33 588.466Z" fill="black"/>
<path d="M992.92 848L1005.93 822.261V822.034H990.932V818.909H1009.57V822.205L996.614 848H992.92Z" fill="black"/>
<path d="M114.102 346.398C112.436 346.398 110.935 346.066 109.599 345.403C108.264 344.741 107.194 343.831 106.389 342.676C105.584 341.521 105.144 340.205 105.068 338.727H108.477C108.61 340.044 109.206 341.133 110.267 341.994C111.337 342.847 112.616 343.273 114.102 343.273C115.295 343.273 116.356 342.993 117.284 342.435C118.222 341.876 118.955 341.109 119.486 340.134C120.026 339.149 120.295 338.036 120.295 336.795C120.295 335.527 120.016 334.395 119.457 333.401C118.908 332.397 118.151 331.606 117.185 331.028C116.219 330.451 115.116 330.157 113.875 330.148C112.985 330.138 112.071 330.276 111.134 330.56C110.196 330.834 109.424 331.189 108.818 331.625L105.523 331.227L107.284 316.909H122.398V320.034H110.239L109.216 328.614H109.386C109.983 328.14 110.731 327.747 111.631 327.435C112.53 327.122 113.468 326.966 114.443 326.966C116.223 326.966 117.81 327.392 119.202 328.244C120.603 329.087 121.702 330.242 122.497 331.71C123.302 333.178 123.705 334.854 123.705 336.739C123.705 338.595 123.288 340.252 122.455 341.71C121.631 343.159 120.494 344.305 119.045 345.148C117.597 345.981 115.949 346.398 114.102 346.398Z" fill="black"/>
<path d="M128.67 846.398C127.477 846.379 126.284 846.152 125.091 845.716C123.898 845.28 122.809 844.546 121.824 843.514C120.839 842.473 120.048 841.066 119.452 839.295C118.855 837.515 118.557 835.28 118.557 832.591C118.557 830.015 118.798 827.733 119.281 825.744C119.764 823.746 120.465 822.065 121.384 820.702C122.302 819.329 123.41 818.287 124.707 817.577C126.014 816.866 127.487 816.511 129.125 816.511C130.754 816.511 132.203 816.838 133.472 817.491C134.75 818.135 135.792 819.035 136.597 820.19C137.402 821.346 137.922 822.676 138.159 824.182H134.693C134.371 822.875 133.746 821.791 132.818 820.929C131.89 820.067 130.659 819.636 129.125 819.636C126.871 819.636 125.096 820.616 123.798 822.577C122.51 824.537 121.862 827.288 121.852 830.83H122.08C122.61 830.025 123.24 829.338 123.969 828.77C124.707 828.192 125.522 827.747 126.412 827.435C127.302 827.122 128.244 826.966 129.239 826.966C130.905 826.966 132.43 827.383 133.812 828.216C135.195 829.04 136.303 830.181 137.136 831.639C137.97 833.088 138.386 834.75 138.386 836.625C138.386 838.424 137.984 840.072 137.179 841.568C136.374 843.055 135.242 844.239 133.784 845.119C132.335 845.991 130.631 846.417 128.67 846.398ZM128.67 843.273C129.864 843.273 130.934 842.974 131.881 842.378C132.837 841.781 133.59 840.981 134.139 839.977C134.698 838.973 134.977 837.856 134.977 836.625C134.977 835.422 134.707 834.329 134.168 833.344C133.637 832.349 132.903 831.559 131.966 830.972C131.038 830.384 129.977 830.091 128.784 830.091C127.884 830.091 127.046 830.271 126.27 830.631C125.493 830.981 124.812 831.464 124.224 832.08C123.647 832.695 123.192 833.401 122.861 834.196C122.529 834.982 122.364 835.811 122.364 836.682C122.364 837.837 122.634 838.917 123.173 839.92C123.723 840.924 124.471 841.734 125.418 842.349C126.374 842.965 127.458 843.273 128.67 843.273Z" fill="black"/>
<path d="M444.33 126.034V123.136L457.114 102.909H459.216V107.398H457.795L448.136 122.682V122.909H465.352V126.034H444.33ZM458.023 132V125.153V123.804V102.909H461.375V132H458.023Z" fill="black"/>
<path d="M454.841 370.398C452.966 370.398 451.295 370.076 449.827 369.432C448.368 368.788 447.208 367.893 446.347 366.747C445.494 365.592 445.03 364.252 444.955 362.727H448.534C448.61 363.665 448.932 364.474 449.5 365.156C450.068 365.829 450.812 366.349 451.73 366.719C452.649 367.088 453.667 367.273 454.784 367.273C456.034 367.273 457.142 367.055 458.108 366.619C459.074 366.184 459.831 365.578 460.381 364.801C460.93 364.025 461.205 363.125 461.205 362.102C461.205 361.032 460.939 360.09 460.409 359.276C459.879 358.452 459.102 357.808 458.08 357.344C457.057 356.88 455.807 356.648 454.33 356.648H452V353.523H454.33C455.485 353.523 456.498 353.314 457.369 352.898C458.25 352.481 458.937 351.894 459.429 351.136C459.931 350.379 460.182 349.489 460.182 348.466C460.182 347.481 459.964 346.624 459.528 345.895C459.093 345.166 458.477 344.598 457.682 344.19C456.896 343.783 455.968 343.58 454.898 343.58C453.894 343.58 452.947 343.764 452.057 344.134C451.176 344.493 450.456 345.019 449.898 345.71C449.339 346.392 449.036 347.216 448.989 348.182H445.58C445.636 346.657 446.096 345.322 446.957 344.176C447.819 343.021 448.946 342.121 450.338 341.477C451.74 340.833 453.278 340.511 454.955 340.511C456.754 340.511 458.297 340.876 459.585 341.605C460.873 342.325 461.863 343.277 462.554 344.46C463.245 345.644 463.591 346.922 463.591 348.295C463.591 349.934 463.16 351.33 462.298 352.486C461.446 353.641 460.286 354.441 458.818 354.886V355.114C460.655 355.417 462.09 356.198 463.122 357.457C464.154 358.707 464.67 360.256 464.67 362.102C464.67 363.684 464.24 365.104 463.378 366.364C462.526 367.614 461.361 368.598 459.884 369.318C458.406 370.038 456.725 370.398 454.841 370.398Z" fill="black"/>
<path d="M445.011 606V603.443L454.614 592.932C455.741 591.701 456.669 590.631 457.398 589.722C458.127 588.803 458.667 587.941 459.017 587.136C459.377 586.322 459.557 585.47 459.557 584.58C459.557 583.557 459.311 582.671 458.818 581.923C458.335 581.175 457.672 580.598 456.83 580.19C455.987 579.783 455.04 579.58 453.989 579.58C452.871 579.58 451.896 579.812 451.062 580.276C450.239 580.73 449.599 581.369 449.145 582.193C448.7 583.017 448.477 583.983 448.477 585.091H445.125C445.125 583.386 445.518 581.89 446.304 580.602C447.09 579.314 448.16 578.311 449.514 577.591C450.878 576.871 452.407 576.511 454.102 576.511C455.807 576.511 457.317 576.871 458.634 577.591C459.95 578.311 460.982 579.281 461.73 580.503C462.478 581.724 462.852 583.083 462.852 584.58C462.852 585.65 462.658 586.696 462.27 587.719C461.891 588.732 461.228 589.864 460.281 591.114C459.344 592.354 458.042 593.869 456.375 595.659L449.841 602.648V602.875H463.364V606H445.011Z" fill="black"/>
</g>
<defs>
<filter id="filter0_d_0_1" x="-4" y="0" width="550" height="1032" filterUnits="userSpaceOnUse" color-interpolation-filters="sRGB">
<feFlood flood-opacity="0" result="BackgroundImageFix"/>
<feColorMatrix in="SourceAlpha" type="matrix" values="0 0 0 0 0 0 0 0 0 0 0 0 0 0 0 0 0 0 127 0" result="hardAlpha"/>
<feOffset dy="4"/>
<feGaussianBlur stdDeviation="2"/>
<feComposite in2="hardAlpha" operator="out"/>
<feColorMatrix type="matrix" values="0 0 0 0 0 0 0 0 0 0 0 0 0 0 0 0 0 0 0.25 0"/>
<feBlend mode="normal" in2="BackgroundImageFix" result="effect1_dropShadow_0_1"/>
<feBlend mode="normal" in="SourceGraphic" in2="effect1_dropShadow_0_1" result="shape"/>
</filter>
<clipPath id="clip0_0_1">
<rect width="1440" height="1024" fill="white"/>
</clipPath>
</defs>
</svg>
